<svg xmlns="http://www.w3.org/2000/svg" viewBox="0 0 1158.319 136.122"><path fill="#e10091" d="M867.196 135.775c0-.354 9.28-25.38 35.47-95.654l14.76-39.6h57.176l6.652 17.2c12.205 31.555 45.142 117.686 45.142 118.046 0 .195-11.647.354-25.882.354h-25.881l-11.821-33.4c-16.78-47.413-16.547-46.79-17.247-46.062-.35.365-6.402 17.222-13.45 37.462-7.05 20.24-13.234 37.97-13.746 39.4l-.93 2.6h-25.121c-13.817 0-25.122-.156-25.122-.346z"/><path d="M39.2 87.721v-48.4H0V.121h131.2v39.2H92.8v96.8H39.2zM121.08 131.014c1.02-2.808 12.444-33.403 25.387-67.988L170 .146l28.486-.013 28.486-.012 15.823 41.4c8.703 22.77 20.274 53.051 25.714 67.291 5.44 14.24 9.891 26.215 9.891 26.611 0 .417-10.856.632-25.731.51l-25.732-.212-13.853-38.8c-7.619-21.34-14.138-39.458-14.488-40.263-.454-1.045-4.633 10.103-14.616 38.992L170 136.105l-25.387.008-25.387.008zM306.4 87.721v-48.4H268V.121h130.4v39.2h-37.6v96.8h-54.4zM386.4 135.775c0-.354 9.28-25.38 35.47-95.654l14.76-39.6h57.176l6.652 17.2C512.662 49.276 545.6 135.407 545.6 135.767c0 .195-11.647.354-25.882.354h-25.881l-11.821-33.4c-16.78-47.413-16.547-46.79-17.247-46.062-.35.365-6.402 17.222-13.45 37.462-7.05 20.24-13.234 37.97-13.746 39.4l-.93 2.6h-25.121c-13.817 0-25.122-.156-25.122-.346z"/><path fill="#e10091" d="M614.4 0v136.121h44.8v-31.836l16.2-.373c18.355-.423 22.559-1.222 33.299-6.34 12.27-5.846 21.25-17.225 24.95-31.611 2.022-7.856 2.202-20.787.397-28.568-4-17.252-16.825-29.692-36.091-35.012C691.907.71 689.739.61 652.999.313zm44.8 38.521 9 .004c11 .005 14.5.907 18.307 4.715 6.594 6.594 4.59 18.433-3.916 23.13-2.809 1.55-4.959 1.924-13.369 2.322l-10.021.472v-15.32zM752.8 68.121v-68H800v96.8h52v39.2h-99.2zM1055.199 117.121v-19l-24.355-49-24.354-49 25.356.038 25.356.039 12.34 25.561c6.785 14.06 12.599 25.562 12.918 25.562.319 0 6.586-11.52 13.928-25.6l13.348-25.6h48.583l-3.031 5.4a740.655 740.655 0 0 0-5.817 10.6c-1.532 2.86-12.21 22.498-23.728 43.64l-20.943 38.44v37.92h-49.6v-19z"/></svg>